<?xml version="1.0" encoding="UTF-8" standalone="no"?><!DOCTYPE svg PUBLIC "-//W3C//DTD SVG 1.1//EN" "http://www.w3.org/Graphics/SVG/1.1/DTD/svg11.dtd"><svg width="100%" height="100%" viewBox="0 0 2256 2256" version="1.1" xmlns="http://www.w3.org/2000/svg" xmlns:xlink="http://www.w3.org/1999/xlink" xml:space="preserve" xmlns:serif="http://www.serif.com/" style="fill-rule:evenodd;clip-rule:evenodd;"><g id="Case-2"><g id="Bottom-Plate" serif:id="Bottom Plate"><path id="Bottom-Plate-Edge" serif:id="Bottom Plate Edge" d="M1173.25,1127.95l-2.083,0l-1.667,0.417l-2.083,0l-1.667,0.833l-1.666,0.417l-1.667,0.833l-1.667,0.833l-1.666,1.25l-1.25,0.834l-1.667,1.666l-1.25,1.25l-0.833,1.25l-1.25,1.667l-0.834,1.667l-0.833,1.666l-0.417,1.667l-0.833,1.667l0,2.083l-0.417,1.667l0,903.75l0.417,1.666l0,2.084l0.833,1.666l0.417,1.667l1.667,3.333l1.25,1.667l0.833,1.25l1.25,1.667l1.667,1.25l1.25,0.833l1.666,1.25l5,2.5l1.667,0.417l2.083,0.416l907.084,0l2.083,-0.416l1.667,-0.417l1.666,-0.833l1.667,-0.834l1.667,-0.833l1.666,-1.25l1.25,-0.833l1.667,-1.25l1.25,-1.667l0.833,-1.25l1.25,-1.667l0.834,-1.666l0.833,-1.667l0.417,-1.667l0.833,-1.666l0.417,-2.084l0,-1.666l0,-1.667l0,-900l0,-2.083l0,-1.667l-0.417,-2.083l-0.833,-1.667l-0.417,-1.667l-0.833,-1.666l-0.834,-1.667l-1.25,-1.667l-0.833,-1.25l-1.25,-1.25l-1.667,-1.666l-1.25,-0.834l-1.666,-1.25l-1.667,-0.833l-1.667,-0.833l-1.666,-0.417l-1.667,-0.833l-2.083,0l-1.667,-0.417l-1.667,0" style="fill:none;stroke:#00f;stroke-width:0.16px;"/><g id="Screw-Holes" serif:id="Screw Holes"><path d="M1412.83,1376.7c0,8.333 -6.667,14.583 -14.584,14.583c-8.333,0 -14.583,-6.666 -14.583,-14.583c0,-8.333 6.667,-14.583 14.583,-14.583c7.917,-0.417 14.584,6.25 14.584,14.583Z" style="fill:none;stroke:#00f;stroke-width:0.16px;stroke-linecap:round;stroke-linejoin:round;stroke-miterlimit:10;"/><path d="M1412.83,1826.7c0,8.333 -6.667,14.583 -14.584,14.583c-8.333,0 -14.583,-6.666 -14.583,-14.583c0,-8.333 6.667,-14.583 14.583,-14.583c7.917,-0.417 14.584,6.25 14.584,14.583Z" style="fill:none;stroke:#00f;stroke-width:0.16px;stroke-linecap:round;stroke-linejoin:round;stroke-miterlimit:10;"/><path d="M1862.83,1376.7c0,8.333 -6.667,14.583 -14.584,14.583c-8.333,0 -14.583,-6.666 -14.583,-14.583c0,-8.333 6.667,-14.583 14.583,-14.583c7.917,-0.417 14.584,6.25 14.584,14.583Z" style="fill:none;stroke:#00f;stroke-width:0.16px;stroke-linecap:round;stroke-linejoin:round;stroke-miterlimit:10;"/><path d="M1862.83,1826.7c0,8.333 -6.667,14.583 -14.584,14.583c-8.333,0 -14.583,-6.666 -14.583,-14.583c0,-8.333 6.667,-14.583 14.583,-14.583c7.917,-0.417 14.584,6.25 14.584,14.583Z" style="fill:none;stroke:#00f;stroke-width:0.16px;stroke-linecap:round;stroke-linejoin:round;stroke-miterlimit:10;"/></g></g><g id="Top-Plate" serif:id="Top Plate"><path id="Top-Plate-Edge--Curve---Curve-" serif:id="Top Plate Edge (Curve) (Curve)" d="M2073.25,1127.95l1.667,0l1.667,-0.417l2.083,-0.416l1.667,-0.417l1.666,-0.417l1.667,-0.833l1.667,-0.833l1.666,-1.25l1.25,-1.25l1.667,-1.25l1.25,-1.25l0.833,-1.25l1.25,-1.667l0.834,-1.667l0.833,-1.666l0.417,-1.667l0.833,-2.083l0.417,-1.667l0,-1.667l0,-2.083l0,-900l0,-1.667l0,-2.083l-0.417,-1.667l-0.833,-1.666l-0.417,-1.667l-0.833,-2.083l-0.834,-1.25l-1.25,-1.667l-0.833,-1.667l-1.25,-1.25l-1.667,-1.25l-1.25,-1.25l-1.666,-0.833l-1.667,-0.833l-1.667,-0.834l-1.666,-0.833l-1.667,-0.417l-2.083,-0.416l-1.667,0l-1.667,0l-900,0l-2.083,0l-1.667,0l-2.083,0.416l-1.667,0.417l-1.666,0.833l-1.667,0.834l-1.667,0.833l-1.666,0.833l-1.25,1.25l-1.667,1.25l-1.25,1.25l-0.833,1.667l-1.25,1.667l-0.834,1.25l-0.833,2.083l-0.417,1.667l-0.833,1.666l0,1.667l-0.417,2.083l0,903.75l0.417,1.667l0,1.667l0.833,2.083l0.417,1.667l1.667,3.333l1.25,1.667l0.833,1.25l1.25,1.25l1.667,1.25l1.25,1.25l1.666,1.25l3.334,1.666l3.333,0.834l2.083,0.416l1.667,0.417l902.083,0Z" style="fill:none;stroke:#00f;stroke-width:0.16px;"/><g id="Switch-Holes" serif:id="Switch Holes"><path id="POLYLINE_1_" d="M1368.25,387.533l0,12.084l-165.416,0l0,-12.084l0,-36.666l0,-68.334l0,-36.666l0,-11.667l165.416,0l0,153.333" style="fill:none;stroke:#00f;stroke-width:0.16px;"/><path id="POLYLINE_35_" d="M2043.25,387.533l0,12.084l-165.416,0l0,-12.084l0,-36.666l0,-68.334l0,-36.666l0,-11.667l165.416,0l0,153.333" style="fill:none;stroke:#00f;stroke-width:0.16px;"/><path id="POLYLINE_34_" d="M1818.25,387.533l0,12.084l-165.416,0l0,-12.084l0,-36.666l0,-68.334l0,-36.666l0,-11.667l165.416,0l0,153.333" style="fill:none;stroke:#00f;stroke-width:0.16px;"/><path id="POLYLINE_33_" d="M1593.25,387.533l0,12.084l-165.416,0l0,-12.084l0,-36.666l0,-68.334l0,-36.666l0,-11.667l165.416,0l0,153.333" style="fill:none;stroke:#00f;stroke-width:0.16px;"/><path id="POLYLINE_36_" d="M1368.25,612.533l0,12.084l-165.416,0l0,-12.084l0,-36.666l0,-68.334l0,-36.666l0,-11.667l165.416,0l0,153.333" style="fill:none;stroke:#00f;stroke-width:0.16px;"/><path id="POLYLINE_13_" d="M2043.25,612.533l0,12.084l-165.416,0l0,-12.084l0,-36.666l0,-68.334l0,-36.666l0,-11.667l165.416,0l0,153.333" style="fill:none;stroke:#00f;stroke-width:0.16px;"/><path id="POLYLINE_9_" d="M1818.25,612.533l0,12.084l-165.416,0l0,-12.084l0,-36.666l0,-68.334l0,-36.666l0,-11.667l165.416,0l0,153.333" style="fill:none;stroke:#00f;stroke-width:0.16px;"/><path id="POLYLINE_5_" d="M1593.25,612.533l0,12.084l-165.416,0l0,-12.084l0,-36.666l0,-68.334l0,-36.666l0,-11.667l165.416,0l0,153.333" style="fill:none;stroke:#00f;stroke-width:0.16px;"/><path id="POLYLINE_40_" d="M1368.25,837.533l0,12.084l-165.416,0l0,-12.084l0,-36.666l0,-68.334l0,-36.666l0,-11.667l165.416,0l0,153.333" style="fill:none;stroke:#00f;stroke-width:0.16px;"/><path id="POLYLINE_39_" d="M2043.25,837.533l0,12.084l-165.416,0l0,-12.084l0,-36.666l0,-68.334l0,-36.666l0,-11.667l165.416,0l0,153.333" style="fill:none;stroke:#00f;stroke-width:0.16px;"/><path id="POLYLINE_38_" d="M1818.25,837.533l0,12.084l-165.416,0l0,-12.084l0,-36.666l0,-68.334l0,-36.666l0,-11.667l165.416,0l0,153.333" style="fill:none;stroke:#00f;stroke-width:0.16px;"/><path id="POLYLINE_37_" d="M1593.25,837.533l0,12.084l-165.416,0l0,-12.084l0,-36.666l0,-68.334l0,-36.666l0,-11.667l165.416,0l0,153.333" style="fill:none;stroke:#00f;stroke-width:0.16px;"/><path id="POLYLINE_14_" d="M1368.25,1062.53l0,12.084l-165.416,0l0,-12.084l0,-36.666l0,-68.334l0,-36.666l0,-11.667l165.416,0l0,153.333" style="fill:none;stroke:#00f;stroke-width:0.16px;"/><path id="POLYLINE_10_" d="M2043.25,1062.53l0,12.084l-165.416,0l0,-12.084l0,-36.666l0,-68.334l0,-36.666l0,-11.667l165.416,0l0,153.333" style="fill:none;stroke:#00f;stroke-width:0.16px;"/><path id="POLYLINE_6_" d="M1818.25,1062.53l0,12.084l-165.416,0l0,-12.084l0,-36.666l0,-68.334l0,-36.666l0,-11.667l165.416,0l0,153.333" style="fill:none;stroke:#00f;stroke-width:0.16px;"/><path id="POLYLINE_2_" d="M1593.25,1062.53l0,12.084l-165.416,0l0,-12.084l0,-36.666l0,-68.334l0,-36.666l0,-11.667l165.416,0l0,153.333" style="fill:none;stroke:#00f;stroke-width:0.16px;"/></g><g id="Screw-Holes1" serif:id="Screw Holes"><path d="M1412.83,429.2c0,8.333 -6.667,14.583 -14.584,14.583c-8.333,0 -14.583,-6.666 -14.583,-14.583c0,-8.333 6.667,-14.583 14.583,-14.583c7.917,0 14.584,6.666 14.584,14.583Z" style="fill:none;stroke:#00f;stroke-width:0.16px;stroke-linecap:round;stroke-linejoin:round;stroke-miterlimit:10;"/><path d="M1412.83,879.2c0,8.333 -6.667,14.583 -14.584,14.583c-8.333,0 -14.583,-6.666 -14.583,-14.583c0,-8.333 6.667,-14.583 14.583,-14.583c7.917,0 14.584,6.666 14.584,14.583Z" style="fill:none;stroke:#00f;stroke-width:0.16px;stroke-linecap:round;stroke-linejoin:round;stroke-miterlimit:10;"/><path d="M1862.83,429.2c0,8.333 -6.667,14.583 -14.584,14.583c-8.333,0 -14.583,-6.666 -14.583,-14.583c0,-8.333 6.667,-14.583 14.583,-14.583c7.917,0 14.584,6.666 14.584,14.583Z" style="fill:none;stroke:#00f;stroke-width:0.16px;stroke-linecap:round;stroke-linejoin:round;stroke-miterlimit:10;"/><path d="M1862.83,879.2c0,8.333 -6.667,14.583 -14.584,14.583c-8.333,0 -14.583,-6.666 -14.583,-14.583c0,-8.333 6.667,-14.583 14.583,-14.583c7.917,0 14.584,6.666 14.584,14.583Z" style="fill:none;stroke:#00f;stroke-width:0.16px;stroke-linecap:round;stroke-linejoin:round;stroke-miterlimit:10;"/></g></g></g><g id="Case-1"><g id="Bottom-Plate1" serif:id="Bottom Plate"><path id="Bottom-Plate-Edge1" serif:id="Bottom Plate Edge" d="M183.072,1127.95l-2.083,0l-1.667,0.417l-2.083,0l-1.667,0.833l-1.666,0.417l-1.667,0.833l-1.667,0.833l-1.666,1.25l-1.25,0.834l-1.667,1.666l-1.25,1.25l-0.833,1.25l-1.25,1.667l-0.834,1.667l-0.833,1.666l-0.417,1.667l-0.833,1.667l0,2.083l-0.417,1.667l0,903.75l0.417,1.666l0,2.084l0.833,1.666l0.417,1.667l1.667,3.333l1.25,1.667l0.833,1.25l1.25,1.667l1.667,1.25l1.25,0.833l1.666,1.25l5,2.5l1.667,0.417l2.083,0.416l907.084,0l2.083,-0.416l1.667,-0.417l1.666,-0.833l1.667,-0.834l1.667,-0.833l1.666,-1.25l1.25,-0.833l1.667,-1.25l1.25,-1.667l0.833,-1.25l1.25,-1.667l0.834,-1.666l0.833,-1.667l0.417,-1.667l0.833,-1.666l0.417,-2.084l0,-1.666l0,-1.667l0,-900l0,-2.083l0,-1.667l-0.417,-2.083l-0.833,-1.667l-0.417,-1.667l-0.833,-1.666l-0.834,-1.667l-1.25,-1.667l-0.833,-1.25l-1.25,-1.25l-1.667,-1.666l-1.25,-0.834l-1.666,-1.25l-1.667,-0.833l-1.667,-0.833l-1.666,-0.417l-1.667,-0.833l-2.083,0l-1.667,-0.417l-1.667,0" style="fill:none;stroke:#00f;stroke-width:0.16px;"/><g id="Screw-Holes2" serif:id="Screw Holes"><path d="M422.656,1376.7c0,8.333 -6.667,14.583 -14.584,14.583c-8.333,0 -14.583,-6.666 -14.583,-14.583c0,-8.333 6.667,-14.583 14.583,-14.583c7.917,-0.417 14.584,6.25 14.584,14.583Z" style="fill:none;stroke:#00f;stroke-width:0.16px;stroke-linecap:round;stroke-linejoin:round;stroke-miterlimit:10;"/><path d="M422.656,1826.7c0,8.333 -6.667,14.583 -14.584,14.583c-8.333,0 -14.583,-6.666 -14.583,-14.583c0,-8.333 6.667,-14.583 14.583,-14.583c7.917,-0.417 14.584,6.25 14.584,14.583Z" style="fill:none;stroke:#00f;stroke-width:0.16px;stroke-linecap:round;stroke-linejoin:round;stroke-miterlimit:10;"/><path d="M872.656,1376.7c0,8.333 -6.667,14.583 -14.584,14.583c-8.333,0 -14.583,-6.666 -14.583,-14.583c0,-8.333 6.667,-14.583 14.583,-14.583c7.917,-0.417 14.584,6.25 14.584,14.583Z" style="fill:none;stroke:#00f;stroke-width:0.16px;stroke-linecap:round;stroke-linejoin:round;stroke-miterlimit:10;"/><path d="M872.656,1826.7c0,8.333 -6.667,14.583 -14.584,14.583c-8.333,0 -14.583,-6.666 -14.583,-14.583c0,-8.333 6.667,-14.583 14.583,-14.583c7.917,-0.417 14.584,6.25 14.584,14.583Z" style="fill:none;stroke:#00f;stroke-width:0.16px;stroke-linecap:round;stroke-linejoin:round;stroke-miterlimit:10;"/></g></g><g id="Top-Plate1" serif:id="Top Plate"><path id="Top-Plate-Edge--Curve---Curve-1" serif:id="Top Plate Edge (Curve) (Curve)" d="M1083.07,1127.95l1.667,0l1.667,-0.417l2.083,-0.416l1.667,-0.417l1.666,-0.417l1.667,-0.833l1.667,-0.833l1.666,-1.25l1.25,-1.25l1.667,-1.25l1.25,-1.25l0.833,-1.25l1.25,-1.667l0.834,-1.667l0.833,-1.666l0.417,-1.667l0.833,-2.083l0.417,-1.667l0,-1.667l0,-2.083l0,-900l0,-1.667l0,-2.083l-0.417,-1.667l-0.833,-1.666l-0.417,-1.667l-0.833,-2.083l-0.834,-1.25l-1.25,-1.667l-0.833,-1.667l-1.25,-1.25l-1.667,-1.25l-1.25,-1.25l-1.666,-0.833l-1.667,-0.833l-1.667,-0.834l-1.666,-0.833l-1.667,-0.417l-2.083,-0.416l-1.667,0l-1.667,0l-900,0l-2.083,0l-1.667,0l-2.083,0.416l-1.667,0.417l-1.666,0.833l-1.667,0.834l-1.667,0.833l-1.666,0.833l-1.25,1.25l-1.667,1.25l-1.25,1.25l-0.833,1.667l-1.25,1.667l-0.834,1.25l-0.833,2.083l-0.417,1.667l-0.833,1.666l0,1.667l-0.417,2.083l0,903.75l0.417,1.667l0,1.667l0.833,2.083l0.417,1.667l1.667,3.333l1.25,1.667l0.833,1.25l1.25,1.25l1.667,1.25l1.25,1.25l1.666,1.25l3.334,1.666l3.333,0.834l2.083,0.416l1.667,0.417l902.083,0Z" style="fill:none;stroke:#00f;stroke-width:0.16px;"/><g id="Switch-Holes1" serif:id="Switch Holes"><path id="POLYLINE_1_1" serif:id="POLYLINE_1_" d="M378.072,387.533l0,12.084l-165.416,0l0,-12.084l0,-36.666l0,-68.334l0,-36.666l0,-11.667l165.416,0l0,153.333" style="fill:none;stroke:#00f;stroke-width:0.16px;"/><path id="POLYLINE_35_1" serif:id="POLYLINE_35_" d="M1053.07,387.533l0,12.084l-165.416,0l0,-12.084l0,-36.666l0,-68.334l0,-36.666l0,-11.667l165.416,0l0,153.333" style="fill:none;stroke:#00f;stroke-width:0.16px;"/><path id="POLYLINE_34_1" serif:id="POLYLINE_34_" d="M828.072,387.533l0,12.084l-165.416,0l0,-12.084l0,-36.666l0,-68.334l0,-36.666l0,-11.667l165.416,0l0,153.333" style="fill:none;stroke:#00f;stroke-width:0.16px;"/><path id="POLYLINE_33_1" serif:id="POLYLINE_33_" d="M603.072,387.533l0,12.084l-165.416,0l0,-12.084l0,-36.666l0,-68.334l0,-36.666l0,-11.667l165.416,0l0,153.333" style="fill:none;stroke:#00f;stroke-width:0.16px;"/><path id="POLYLINE_36_1" serif:id="POLYLINE_36_" d="M378.072,612.533l0,12.084l-165.416,0l0,-12.084l0,-36.666l0,-68.334l0,-36.666l0,-11.667l165.416,0l0,153.333" style="fill:none;stroke:#00f;stroke-width:0.16px;"/><path id="POLYLINE_13_1" serif:id="POLYLINE_13_" d="M1053.07,612.533l0,12.084l-165.416,0l0,-12.084l0,-36.666l0,-68.334l0,-36.666l0,-11.667l165.416,0l0,153.333" style="fill:none;stroke:#00f;stroke-width:0.16px;"/><path id="POLYLINE_9_1" serif:id="POLYLINE_9_" d="M828.072,612.533l0,12.084l-165.416,0l0,-12.084l0,-36.666l0,-68.334l0,-36.666l0,-11.667l165.416,0l0,153.333" style="fill:none;stroke:#00f;stroke-width:0.16px;"/><path id="POLYLINE_5_1" serif:id="POLYLINE_5_" d="M603.072,612.533l0,12.084l-165.416,0l0,-12.084l0,-36.666l0,-68.334l0,-36.666l0,-11.667l165.416,0l0,153.333" style="fill:none;stroke:#00f;stroke-width:0.16px;"/><path id="POLYLINE_40_1" serif:id="POLYLINE_40_" d="M378.072,837.533l0,12.084l-165.416,0l0,-12.084l0,-36.666l0,-68.334l0,-36.666l0,-11.667l165.416,0l0,153.333" style="fill:none;stroke:#00f;stroke-width:0.16px;"/><path id="POLYLINE_39_1" serif:id="POLYLINE_39_" d="M1053.07,837.533l0,12.084l-165.416,0l0,-12.084l0,-36.666l0,-68.334l0,-36.666l0,-11.667l165.416,0l0,153.333" style="fill:none;stroke:#00f;stroke-width:0.16px;"/><path id="POLYLINE_38_1" serif:id="POLYLINE_38_" d="M828.072,837.533l0,12.084l-165.416,0l0,-12.084l0,-36.666l0,-68.334l0,-36.666l0,-11.667l165.416,0l0,153.333" style="fill:none;stroke:#00f;stroke-width:0.16px;"/><path id="POLYLINE_37_1" serif:id="POLYLINE_37_" d="M603.072,837.533l0,12.084l-165.416,0l0,-12.084l0,-36.666l0,-68.334l0,-36.666l0,-11.667l165.416,0l0,153.333" style="fill:none;stroke:#00f;stroke-width:0.16px;"/><path id="POLYLINE_14_1" serif:id="POLYLINE_14_" d="M378.072,1062.53l0,12.084l-165.416,0l0,-12.084l0,-36.666l0,-68.334l0,-36.666l0,-11.667l165.416,0l0,153.333" style="fill:none;stroke:#00f;stroke-width:0.16px;"/><path id="POLYLINE_10_1" serif:id="POLYLINE_10_" d="M1053.07,1062.53l0,12.084l-165.416,0l0,-12.084l0,-36.666l0,-68.334l0,-36.666l0,-11.667l165.416,0l0,153.333" style="fill:none;stroke:#00f;stroke-width:0.16px;"/><path id="POLYLINE_6_1" serif:id="POLYLINE_6_" d="M828.072,1062.53l0,12.084l-165.416,0l0,-12.084l0,-36.666l0,-68.334l0,-36.666l0,-11.667l165.416,0l0,153.333" style="fill:none;stroke:#00f;stroke-width:0.16px;"/><path id="POLYLINE_2_1" serif:id="POLYLINE_2_" d="M603.072,1062.53l0,12.084l-165.416,0l0,-12.084l0,-36.666l0,-68.334l0,-36.666l0,-11.667l165.416,0l0,153.333" style="fill:none;stroke:#00f;stroke-width:0.16px;"/></g><g id="Screw-Holes3" serif:id="Screw Holes"><path d="M422.656,429.2c0,8.333 -6.667,14.583 -14.584,14.583c-8.333,0 -14.583,-6.666 -14.583,-14.583c0,-8.333 6.667,-14.583 14.583,-14.583c7.917,0 14.584,6.666 14.584,14.583Z" style="fill:none;stroke:#00f;stroke-width:0.16px;stroke-linecap:round;stroke-linejoin:round;stroke-miterlimit:10;"/><path d="M422.656,879.2c0,8.333 -6.667,14.583 -14.584,14.583c-8.333,0 -14.583,-6.666 -14.583,-14.583c0,-8.333 6.667,-14.583 14.583,-14.583c7.917,0 14.584,6.666 14.584,14.583Z" style="fill:none;stroke:#00f;stroke-width:0.16px;stroke-linecap:round;stroke-linejoin:round;stroke-miterlimit:10;"/><path d="M872.656,429.2c0,8.333 -6.667,14.583 -14.584,14.583c-8.333,0 -14.583,-6.666 -14.583,-14.583c0,-8.333 6.667,-14.583 14.583,-14.583c7.917,0 14.584,6.666 14.584,14.583Z" style="fill:none;stroke:#00f;stroke-width:0.16px;stroke-linecap:round;stroke-linejoin:round;stroke-miterlimit:10;"/><path d="M872.656,879.2c0,8.333 -6.667,14.583 -14.584,14.583c-8.333,0 -14.583,-6.666 -14.583,-14.583c0,-8.333 6.667,-14.583 14.583,-14.583c7.917,0 14.584,6.666 14.584,14.583Z" style="fill:none;stroke:#00f;stroke-width:0.16px;stroke-linecap:round;stroke-linejoin:round;stroke-miterlimit:10;"/></g></g></g></svg>